<?xml version="1.0" encoding="UTF-8"?><svg id="Layer_1" xmlns="http://www.w3.org/2000/svg" viewBox="0 0 407 60"><defs><style>.cls-1{fill:#757474;}.cls-1,.cls-2{fill-rule:evenodd;}.cls-2{fill:#fff;}</style></defs><g id="Design"><g id="header" transform="translate(0.000000, -42.000000)"><g id="img_ackee_logo_header" transform="translate(-0.000000, 42.000000)"><polygon id="Fill-1" class="cls-1" points="0 60 192 60 192 0 0 0 0 60"/><path id="Fill-2" class="cls-2" d="M102.96,47.42l-9.05-10.91h-3.57v10.91h-6.04V7.74h6.04V29.98h3.57l9.04-10.91h7.86l-11.74,14.18,11.75,14.18h-7.86ZM31.34,24c-5.08,0-9.21,4.15-9.21,9.24s4.13,9.24,9.21,9.24,9.2-4.15,9.2-9.24-4.13-9.24-9.2-9.24h0Zm0,24.55c-8.41,0-15.25-6.87-15.25-15.31s6.84-15.31,15.25-15.31c3.22,0,6.3,1,8.91,2.9l.29,.21v-1.98h6.04v28.35h-6.04v-1.98l-.29,.21c-2.61,1.9-5.69,2.9-8.91,2.9h0Zm35.65,0c-8.41,0-15.24-6.87-15.24-15.31s6.84-15.31,15.24-15.31c5.13,0,9.86,2.55,12.7,6.84l-5.48,2.73c-1.76-2.23-4.38-3.51-7.22-3.51-5.08,0-9.2,4.15-9.21,9.24,0,5.1,4.13,9.24,9.21,9.24,2.84,0,5.46-1.28,7.22-3.51l5.48,2.73c-2.84,4.29-7.57,6.84-12.7,6.84h0Zm59.94-24.55c-3.77,0-7,2.34-8.22,5.96l-.08,.24h16.61l-.08-.24c-1.22-3.62-4.45-5.96-8.22-5.96h0Zm.46,24.55c-8.41,0-15.25-6.87-15.25-15.31s6.5-15.31,14.79-15.31,14.79,6.72,14.79,15.31v3.03h-23.03l.1,.25c1.35,3.57,4.81,5.96,8.6,5.96,2.51,0,4.85-.99,6.58-2.78l5.42,2.98c-2.91,3.73-7.27,5.87-12,5.87h0Zm33.73-24.55c-3.77,0-7,2.34-8.22,5.96l-.08,.24h16.61l-.08-.24c-1.22-3.62-4.45-5.96-8.22-5.96h0Zm.46,24.55c-8.41,0-15.25-6.87-15.25-15.31s6.5-15.31,14.79-15.31,14.79,6.72,14.79,15.31v3.03h-23.03l.1,.25c1.35,3.57,4.81,5.96,8.6,5.96,2.51,0,4.85-.99,6.58-2.78l5.42,2.98c-2.91,3.73-7.28,5.87-12,5.87h0Z"/><path id="Fill-4" class="cls-1" d="M337.27,23.98c-1.99,0-3.86,.54-5.43,1.54v-8.51h-4.33v16.71h0v10.52h4.33v-10.52c0-3.16,2.24-5.37,5.43-5.37s5.43,2.21,5.43,5.38v10.51h4.33v-10.51c0-2.78-1.03-5.3-2.9-7.09-1.79-1.71-4.23-2.66-6.86-2.66h0Zm-21.99,4.15c1.94,0,3.73,.88,4.93,2.41l3.74-1.88c-1.94-2.94-5.17-4.69-8.67-4.69-5.74,0-10.41,4.71-10.41,10.5s4.67,10.5,10.41,10.5c3.5,0,6.73-1.75,8.67-4.69l-3.74-1.88c-1.2,1.53-2.99,2.41-4.93,2.41-3.46,0-6.28-2.84-6.28-6.34,0-3.49,2.82-6.34,6.28-6.34h0Zm-10.54-3.35h-5.36l-6.17,7.49h-2.43v-15.27h-4.12v27.23h4.12v-7.49h2.43l6.17,7.49h5.36l-8.02-9.72,8.01-9.73Zm99.37,1.82c-1.79-1.71-4.23-2.66-6.86-2.66-1.99,0-3.86,.54-5.43,1.54v-.77h-4.33v8.97h0v10.52h4.33v-10.52c0-3.16,2.24-5.37,5.43-5.37s5.43,2.21,5.43,5.38v10.51h4.33v-10.51c0-2.78-1.03-5.3-2.9-7.09h0Zm-43.18,14.23c-3.46,0-6.28-2.84-6.28-6.34s2.82-6.34,6.28-6.34,6.28,2.84,6.28,6.34-2.82,6.34-6.28,6.34h0Zm6.28-14.7l-.2-.15c-1.78-1.3-3.89-1.99-6.08-1.99-5.74,0-10.41,4.71-10.41,10.5s4.67,10.5,10.41,10.5c2.2,0,4.3-.69,6.08-1.99l.2-.15v1.36h4.12V24.76h-4.12v1.36Zm10.01,18.08h4.16V24.73h-4.16v19.47Zm2.08-27c-1.33,0-2.4,1.08-2.4,2.42s1.07,2.42,2.4,2.42,2.4-1.08,2.4-2.42-1.07-2.42-2.4-2.42h0Zm-146.69,27.03h4.16V17h-4.16v27.23Zm41.69-16.1c1.94,0,3.73,.88,4.93,2.41l3.74-1.88c-1.94-2.94-5.17-4.69-8.67-4.69-5.74,0-10.41,4.71-10.41,10.5s4.67,10.5,10.41,10.5c3.5,0,6.73-1.75,8.67-4.69l-3.74-1.88c-1.2,1.53-2.99,2.41-4.93,2.41-3.46,0-6.28-2.84-6.28-6.34s2.82-6.34,6.28-6.34h0Zm-55.87,12.5c-3.36,0-6.09-2.76-6.09-6.15s2.73-6.14,6.09-6.14,6.09,2.76,6.09,6.14-2.73,6.15-6.09,6.15h0Zm0-16.66c-2.27,0-4.38,.74-6.09,1.99v-8.97h-4.33v27.23h4.33v-1.22c1.71,1.25,3.82,1.99,6.09,1.99,5.74,0,10.42-4.72,10.42-10.51s-4.67-10.51-10.42-10.51h0Zm32.28,16.66c-3.36,0-6.09-2.76-6.09-6.15s2.73-6.14,6.09-6.14,6.09,2.76,6.09,6.14-2.73,6.15-6.09,6.15h0Zm0-16.66c-5.74,0-10.42,4.72-10.42,10.51s4.67,10.51,10.42,10.51,10.42-4.72,10.42-10.51-4.67-10.51-10.42-10.51h0Z"/></g></g></g></svg>