<svg xmlns="http://www.w3.org/2000/svg" width="31.674" height="30.158" viewBox="0 0 31.674 30.158">
  <g id="Group_472" data-name="Group 472" transform="translate(-340.007 -19.842)">
    <g id="Group_471" data-name="Group 471">
      <path id="Path_130" data-name="Path 130" d="M369.627,22.245a.067.067,0,0,0-.042-.01,2.62,2.62,0,0,0-.509-.18,3.386,3.386,0,0,0-.879-.117h-9.1v-1.26a.838.838,0,0,0-.836-.836h-4.236a.374.374,0,0,0-.148.031h-.053a.733.733,0,0,0-.18.1l-2.828,1.98h-7.349a3,3,0,0,0-.54.053,1.694,1.694,0,0,0-.317.063H342.6a3.458,3.458,0,0,0-2.594,3.357v19a2.838,2.838,0,0,0,.116.89,3.509,3.509,0,0,0,2.2,2.33l.159.063a3.379,3.379,0,0,0,.921.191v.01h.053c.106,0,.212.011.307.011h1.366l4.977-.011h.709l2.838,1.97a.706.706,0,0,0,.2.095h.053a.681.681,0,0,0,.211.032h4.141a.836.836,0,0,0,.836-.826V47.9h2.457s2.5.043,4.659.011h.032c.614-.011,1.2-.021,1.684-.042h.01a5.735,5.735,0,0,0,1.356-.149,3.2,3.2,0,0,0,.55-.243c.011,0,.022,0,.022-.011a1.791,1.791,0,0,0,.3-.19,3.465,3.465,0,0,0,1.514-2.849V25.412A3.492,3.492,0,0,0,369.627,22.245ZM359.1,27.868h6.746v14.1H359.1Zm-5.813,19.7L351.3,46.188l-.074-.053-5.411-3.749V27.466l5.538-3.844.074-.053,1.864-1.292Zm-9.817-1.344a2,2,0,0,1-.36-.032.7.7,0,0,1-.211-.064,1.784,1.784,0,0,1-1.229-1.705l-.01-19.007a1.789,1.789,0,0,1,1.683-1.79.385.385,0,0,1,.117-.011h4.966l-.01.011-3.94,2.732a.824.824,0,0,0-.328.667V42.81a.836.836,0,0,0,.328.688l3.813,2.637.074.053.042.032Zm13.936,2.1H354.95v-26.8h2.478v2.107l-.021,22.566Zm1.694-2.1V43.646h7.593a.838.838,0,0,0,.836-.836V27.021a.831.831,0,0,0-.836-.836H359.1V23.611h9.086a.378.378,0,0,1,.116.011c.011-.011.022-.011.022,0a1.765,1.765,0,0,1,1.588,1.313.3.3,0,0,1,.021.1,1.121,1.121,0,0,1,.053.382v19a1.756,1.756,0,0,1-.053.413c0,.021-.01.032-.01.053a1.782,1.782,0,0,1-1.091,1.207,1.225,1.225,0,0,1-.275.095h-.011a1.335,1.335,0,0,1-.36.043Zm-5.813-22.6V46.188h1.662V23.622Z" fill="#f48c57"/>
      <path id="Path_131" data-name="Path 131" d="M349.229,38.784l1.394.692a.835.835,0,1,0,.744-1.5h0l-1.392-.691a.373.373,0,0,1-.207-.334V33.282a.372.372,0,0,1,.207-.334l1.392-.692a.835.835,0,1,0-.744-1.5l-1.394.692a2.043,2.043,0,0,0-1.134,1.83v3.673A2.041,2.041,0,0,0,349.229,38.784Z" fill="#f48c57"/>
    </g>
    <circle id="Ellipse_35" data-name="Ellipse 35" cx="0.812" cy="0.812" r="0.812" transform="translate(366.33 47.138)" fill="#f48c57"/>
    <circle id="Ellipse_36" data-name="Ellipse 36" cx="0.812" cy="0.812" r="0.812" transform="translate(343.498 47.138)" fill="#f48c57"/>
  </g>
</svg>
