<svg xmlns="http://www.w3.org/2000/svg" width="30.899" height="29.968" viewBox="0 0 30.899 29.968">
  <g id="Group_490" data-name="Group 490" transform="translate(-386.867 -20.032)">
    <g id="Group_489" data-name="Group 489">
      <g id="Group_488" data-name="Group 488">
        <path id="Path_146" data-name="Path 146" d="M417.766,28.595h-1.818V23.243a1,1,0,0,0-.909-1.07H389.593a1,1,0,0,0-.908,1.07v5.352h-1.818V23.243a3,3,0,0,1,2.726-3.211h25.446a3,3,0,0,1,2.727,3.211v5.352" fill="#f48c57" fill-rule="evenodd"/>
        <path id="Path_147" data-name="Path 147" d="M413.222,50H391.411a3,3,0,0,1-2.726-3.211V28.595H390.5V46.789a1,1,0,0,0,.909,1.07h21.811a1,1,0,0,0,.909-1.07V28.595h1.817V46.789A3,3,0,0,1,413.222,50" fill="#f48c57" fill-rule="evenodd"/>
        <path id="Path_148" data-name="Path 148" d="M405.951,35.016h-7.27a1.084,1.084,0,0,1,0-2.14h7.27a1.084,1.084,0,0,1,0,2.14" fill="#f48c57" fill-rule="evenodd"/>
        <path id="Path_149" data-name="Path 149" d="M386.867,26.454h30.9v2.141h-30.9Z" fill="#f48c57" fill-rule="evenodd"/>
      </g>
    </g>
  </g>
</svg>
