<?xml version="1.0" encoding="UTF-8"?><svg id="Layer_1" xmlns="http://www.w3.org/2000/svg" viewBox="0 0 1227.93 246.63"><g id="Layer_2"><g id="Layer_1-2"><path d="M382.59,203.75L450.88,46.43h27.72l67.78,157.32h-29l-16.63-39.11h-73.81l-16.63,39.11h-27.72Zm67.79-93.94l-13.38,31.46h53.92l-13.86-32.36c-.5-1.05-1.5-3.67-3-7.87-1.5-4.2-3.17-8.84-5-13.93-1.85-5.09-3.51-9.59-5-13.49-1.35,3.91-2.86,8.17-4.53,12.82s-3.32,9.06-4.92,13.25-3.06,7.57-4.23,10.12Z"/><path d="M618.45,203.75V69.8h-49.39v-23.37h127.5v23.37h-50.9V203.8l-27.21-.05Z"/><path d="M750.23,203.75V46.43h75.08c9.68-.09,19.24,2.19,27.85,6.63,8.19,4.17,15.17,10.37,20.28,18,5.03,7.54,7.66,16.43,7.56,25.49,0,9.59-3.19,18.43-9.57,26.52-6.34,8.06-14.8,14.21-24.43,17.75l41.06,63.18-33-.23-37.29-59.11h-40.33v59.11l-27.21-.02Zm27.21-82.48h50.4c7.39,0,13.47-2.4,18.26-7.19,4.74-4.67,7.35-11.09,7.19-17.75,.15-7.47-3.26-14.57-9.2-19.11-6.14-4.94-13.91-7.41-23.31-7.42h-43.34v51.47Z"/><path d="M939,203.75v-22.47h28.47V68.91h-28.47v-22.48h84.16v22.48h-28.52v112.37h28.48v22.47h-84.12Z"/><path d="M1067.46,203.75l63.25-80.46-62-76.86h34.51l46.12,60,44.09-60h32l-61,79.34,63.5,78h-34.52l-47.12-60.9-46.86,60.9-31.97-.02Z"/><polygon points="208.54 230.06 248.61 217.2 256.05 230.15 208.54 230.06"/><polygon points="256.23 197.51 104.22 246.28 284.47 246.63 256.23 197.51 256.23 197.51"/><polygon points="28.48 229.72 52.49 188.3 43.52 229.74 28.48 229.72"/><polygon points="90.6 89.84 0 246.08 56.77 246.19 90.6 89.84 90.6 89.84"/><polygon points="134.46 46.96 142.64 32.85 168.5 77.84 134.46 46.96"/><polygon points="142.71 0 113.59 50.2 234.72 160.07 142.71 0 142.71 0"/></g></g></svg>