<svg xmlns="http://www.w3.org/2000/svg" width="32" height="30" viewBox="0 0 32 30"><defs><style>.a{fill:#f48c57;}</style></defs><path class="a" d="M434,180.125V156.652a2.151,2.151,0,0,0,.068-.209,3.115,3.115,0,0,1,2.272-2.479,4.429,4.429,0,0,1,1.238-.139q12.289-.011,24.578,0c.278,0,.556.009.834.026A3.194,3.194,0,0,1,466,157.042q.005,11.346,0,22.693a3.165,3.165,0,0,1-3.011,3.181l-.691.032c-.035.118-.057.213-.09.3a.865.865,0,0,1-.818.57.807.807,0,0,1-.807-.575c-.065-.277-.2-.319-.442-.318q-10.136.008-20.273,0c-.23,0-.365.029-.424.3a.811.811,0,0,1-.761.592.788.788,0,0,1-.839-.521c-.085-.36-.283-.367-.571-.373a3.183,3.183,0,0,1-3.18-2.5C434.066,180.325,434.03,180.226,434,180.125Zm16.018-24.518h-12.5c-.139,0-.279,0-.417.009a1.427,1.427,0,0,0-1.283,1.1,3.381,3.381,0,0,0-.05.709q0,10.958,0,21.915c0,.086,0,.173,0,.259a1.452,1.452,0,0,0,1.606,1.565q12.627,0,25.253,0a1.462,1.462,0,0,0,1.62-1.619q.006-11.168,0-22.337a1.959,1.959,0,0,0-.155-.783,1.421,1.421,0,0,0-1.444-.818Q456.331,155.611,450.018,155.607Zm.923,23.546H440.693c-.771,0-1.088-.319-1.088-1.1q0-9.644,0-19.287c0-.79.33-1.115,1.12-1.115h20.432c.8,0,1.111.316,1.111,1.115q0,9.644,0,19.287c0,.8-.3,1.105-1.111,1.105Zm-9.546-1.769h.363q9.173,0,18.346.007c.323,0,.412-.081.411-.412q-.016-8.575-.008-17.15v-.385H441.4v2.918c.463,0,.9-.014,1.338,0a.878.878,0,0,1-.037,1.755c-.434.015-.869,0-1.306,0v8.5c.4,0,.788-.016,1.17.007a1.52,1.52,0,0,1,.612.149.86.86,0,0,1,.378.984.887.887,0,0,1-.838.641c-.436.015-.872,0-1.324,0Zm14.513-7.4c.557.559,1.1,1.095,1.632,1.642a.826.826,0,0,1,.173,1.035.816.816,0,0,1-.94.448,1.341,1.341,0,0,1-.536-.326c-.474-.452-.932-.923-1.387-1.4a.267.267,0,0,0-.381-.066,3.193,3.193,0,0,1-2.789.124.343.343,0,0,0-.443.09q-.678.713-1.386,1.4a.823.823,0,0,1-1.006.15.852.852,0,0,1-.444-.924,1.109,1.109,0,0,1,.268-.5c.41-.441.837-.866,1.269-1.285a.266.266,0,0,0,.056-.386,3.448,3.448,0,0,1-.126-3.317.4.4,0,0,0-.057-.35c-.348-.381-.722-.737-1.082-1.107a.9.9,0,0,1-.08-1.343.85.85,0,0,1,1.3.093c.358.357.717.713,1.065,1.079a.3.3,0,0,0,.41.085,3.3,3.3,0,0,1,3.281.127.238.238,0,0,0,.353-.051c.425-.456.857-.907,1.3-1.347a.859.859,0,0,1,1.479.735,1.316,1.316,0,0,1-.31.547c-.424.457-.878.886-1.307,1.339a.4.4,0,0,0-.109.319A3.74,3.74,0,0,1,455.908,169.988Zm-1.263-1.752a1.707,1.707,0,0,0-3.414-.031,1.707,1.707,0,1,0,3.414.031Z" transform="translate(-434 -153.82)"/></svg>