<svg xmlns="http://www.w3.org/2000/svg" width="17.017" height="17.017" viewBox="0 0 17.017 17.017">
  <g id="Group_3245" data-name="Group 3245" transform="translate(-477.787 -19.989)">
    <path id="Path_1107" data-name="Path 1107" d="M486.3,19.989A8.508,8.508,0,1,0,494.8,28.5,8.509,8.509,0,0,0,486.3,19.989Zm0,15.882a7.374,7.374,0,1,1,7.374-7.374A7.382,7.382,0,0,1,486.3,35.871Z" fill="#f48c57"/>
    <g id="Group_3023" data-name="Group 3023" transform="translate(482.345 24.609)">
      <path id="Path_1108" data-name="Path 1108" d="M495.193,31.259a3.1,3.1,0,0,1-3.1,3.069h-1.786a.795.795,0,0,1,0-1.589H492.1a1.483,1.483,0,0,0,.663-.154,1.51,1.51,0,0,0,.845-1.393,1.527,1.527,0,0,0-1.537-1.468h-2.848V28.134h2.829A3.142,3.142,0,0,1,495.193,31.259Z" transform="translate(-487.292 -28.134)" fill="#f48c57"/>
      <path id="Path_1109" data-name="Path 1109" d="M493.83,33.59a1.509,1.509,0,0,1-.845,1.354,1.491,1.491,0,0,1-.663.154h-1.786a.794.794,0,0,0-.562,1.356.794.794,0,0,0,.562.233h1.786a3.1,3.1,0,0,0,3.1-3.093Z" transform="translate(-487.519 -30.495)" fill="#f48c57"/>
      <path id="Path_1110" data-name="Path 1110" d="M494.938,35.911h-1.9L492,34.329l-1.041-1.591-1.742-2.656V28.134h.626l1.04,1.589,1.875,2.861.875,1.335Z" transform="translate(-487.292 -28.134)" fill="#f48c57"/>
      <path id="Path_1111" data-name="Path 1111" d="M486.7,37.859a.875.875,0,1,0-.875-.875A.875.875,0,0,0,486.7,37.859Z" transform="translate(-485.823 -31.585)" fill="#f48c57"/>
    </g>
  </g>
</svg>
