<svg xmlns="http://www.w3.org/2000/svg" xmlns:xlink="http://www.w3.org/1999/xlink" width="15.779" height="15.779" viewBox="0 0 15.779 15.779">
  <defs>
    <clipPath id="clip-path">
      <rect id="Rectangle_1985" data-name="Rectangle 1985" width="15.779" height="15.779" fill="#f48c57"/>
    </clipPath>
  </defs>
  <g id="Group_3283" data-name="Group 3283" transform="translate(-1180.622 -348.841)">
    <g id="Group_3281" data-name="Group 3281" transform="translate(14.329 18.543)">
      <path id="Path_1123" data-name="Path 1123" d="M494.7,31a2.841,2.841,0,0,1-2.841,2.815h-1.639a.729.729,0,0,1,0-1.458h1.639a1.361,1.361,0,0,0,.608-.141,1.386,1.386,0,0,0,.775-1.278,1.4,1.4,0,0,0-1.41-1.347h-2.613V28.134h2.6A2.882,2.882,0,0,1,494.7,31Z" transform="translate(683.107 306.486)" fill="#f48c57"/>
      <path id="Path_1124" data-name="Path 1124" d="M494.465,35.269h-1.743l-.952-1.452-.955-1.459-1.6-2.437V28.134h.574l.954,1.458,1.72,2.624.8,1.224Z" transform="translate(683.107 306.486)" fill="#f48c57"/>
      <path id="Path_1125" data-name="Path 1125" d="M486.626,37.715a.8.8,0,1,0-.8-.8A.8.8,0,0,0,486.626,37.715Z" transform="translate(684.735 302.661)" fill="#f48c57"/>
    </g>
    <g id="Group_3282" data-name="Group 3282" transform="translate(1180.622 348.842)">
      <g id="Group_3282-2" data-name="Group 3282" transform="translate(0 0)" clip-path="url(#clip-path)">
        <path id="Path_1128" data-name="Path 1128" d="M7.89,1.16a1.39,1.39,0,0,1,.99.41l.811.811.34.34h1.627a1.4,1.4,0,0,1,1.4,1.4V5.749l.34.34.811.811a1.4,1.4,0,0,1,0,1.98L13.4,9.69l-.34.34v1.627a1.4,1.4,0,0,1-1.4,1.4H10.031l-.34.34-.811.811a1.4,1.4,0,0,1-1.98,0L6.088,13.4l-.34-.34H4.122a1.4,1.4,0,0,1-1.4-1.4V10.031l-.34-.34L1.571,8.88a1.4,1.4,0,0,1,0-1.98l.811-.811.34-.34V4.122a1.4,1.4,0,0,1,1.4-1.4H5.749l.34-.34L6.9,1.57a1.39,1.39,0,0,1,.99-.41M7.89,0A2.552,2.552,0,0,0,6.079.75l-.811.811H4.122A2.56,2.56,0,0,0,1.561,4.122V5.268L.75,6.079A2.56,2.56,0,0,0,.75,9.7l.811.811v1.147a2.56,2.56,0,0,0,2.561,2.56H5.269l.811.811a2.56,2.56,0,0,0,3.621,0l.811-.811h1.147a2.56,2.56,0,0,0,2.561-2.56V10.511l.811-.811a2.56,2.56,0,0,0,0-3.621l-.811-.811V4.122a2.56,2.56,0,0,0-2.561-2.561H10.511L9.7.75A2.552,2.552,0,0,0,7.89,0" transform="translate(0 0)" fill="#f48c57"/>
      </g>
    </g>
  </g>
</svg>
