<svg xmlns="http://www.w3.org/2000/svg" width="34" height="34" viewBox="0 0 34 34">
  <g id="Group_2080" data-name="Group 2080" transform="translate(-1294 -31)">
    <g id="Group_2076" data-name="Group 2076" transform="translate(-175 7)" opacity="0.2">
      <g id="Ellipse_101" data-name="Ellipse 101" transform="translate(1469 24)" fill="none" stroke="#fff" stroke-width="1">
        <circle cx="17" cy="17" r="17" stroke="none"/>
        <circle cx="17" cy="17" r="16.5" fill="none"/>
      </g>
    </g>
    <g id="Group_2077" data-name="Group 2077" transform="translate(-187.242 74.709)">
      <path id="Path_1036" data-name="Path 1036" d="M1766.394-33.819a.668.668,0,0,1,.46.495.845.845,0,0,1,.014.161q0,.911,0,1.822a.628.628,0,0,1-.632.66.626.626,0,0,1-.618-.66c0-.566.012-1.132,0-1.7a.712.712,0,0,1,.479-.78Z" transform="translate(-268.002)" fill="#fff"/>
      <path id="Path_1037" data-name="Path 1037" d="M1644.54,123.827a3.749,3.749,0,1,1,3.746-3.745A3.757,3.757,0,0,1,1644.54,123.827Zm-.01-1.25a2.5,2.5,0,1,0-2.494-2.507A2.488,2.488,0,0,0,1644.53,122.577Z" transform="translate(-146.294 -146.395)" fill="#fff"/>
      <path id="Path_1038" data-name="Path 1038" d="M1572.912,382.225a.627.627,0,0,1,.408,1.079c-.437.44-.874.882-1.32,1.313a.773.773,0,0,1-.332.181.618.618,0,0,1-.591-1.012c.462-.475.932-.94,1.4-1.406A.6.6,0,0,1,1572.912,382.225Z" transform="translate(-78.174 -405.646)" fill="#fff"/>
      <path id="Path_1039" data-name="Path 1039" d="M1906.846,382.63a.609.609,0,0,1,.369-.547.568.568,0,0,1,.663.1q.715.689,1.4,1.4a.621.621,0,0,1-.876.876c-.477-.459-.941-.932-1.406-1.4A.6.6,0,0,1,1906.846,382.63Z" transform="translate(-405.704 -405.445)" fill="#fff"/>
      <path id="Path_1040" data-name="Path 1040" d="M1573.612,48.447a.6.6,0,0,1-.36.552.569.569,0,0,1-.674-.1q-.714-.689-1.4-1.4a.621.621,0,0,1,.88-.872c.473.457.934.926,1.4,1.394A.6.6,0,0,1,1573.612,48.447Z" transform="translate(-78.268 -78.279)" fill="#fff"/>
      <path id="Path_1041" data-name="Path 1041" d="M1906.763,48.5a.626.626,0,0,1,.179-.449c.449-.452.9-.9,1.352-1.351a.623.623,0,0,1,.889.873q-.676.693-1.37,1.369a.58.58,0,0,1-.683.113A.6.6,0,0,1,1906.763,48.5Z" transform="translate(-405.623 -78.333)" fill="#fff"/>
      <path id="Path_1042" data-name="Path 1042" d="M1966.868,241.2c.312,0,.624,0,.936,0a.625.625,0,1,1,0,1.249q-.93,0-1.86,0a.625.625,0,1,1,0-1.249C1966.252,241.2,1966.56,241.2,1966.868,241.2Z" transform="translate(-462.698 -268.144)" fill="#fff"/>
      <path id="Path_1043" data-name="Path 1043" d="M1765.8,442.246c0-.3,0-.607,0-.911a.625.625,0,1,1,1.25,0q0,.917,0,1.835a.625.625,0,1,1-1.25,0C1765.8,442.862,1765.8,442.554,1765.8,442.246Z" transform="translate(-268.187 -462.642)" fill="#fff"/>
      <path id="Path_1044" data-name="Path 1044" d="M1492.3,242.451c-.3,0-.607,0-.911,0a.625.625,0,1,1,0-1.249h1.835a.625.625,0,1,1,0,1.249Z" transform="translate(0 -268.146)" fill="#fff"/>
      <circle id="Ellipse_102" data-name="Ellipse 102" cx="3" cy="3" r="3" transform="translate(1495.242 -29.709)" fill="#fff"/>
    </g>
  </g>
</svg>
