<svg xmlns="http://www.w3.org/2000/svg" xmlns:xlink="http://www.w3.org/1999/xlink" width="16" height="19" viewBox="0 0 16 19">
  <defs>
    <clipPath id="clip-path">
      <rect id="Rectangle_1979" data-name="Rectangle 1979" width="16" height="19" transform="translate(2.526 -0.474)" fill="#f48c57"/>
    </clipPath>
  </defs>
  <g id="Group_3264" data-name="Group 3264" transform="translate(24.474 1.474)">
    <g id="Group_3262" data-name="Group 3262" transform="translate(-27 -1)" clip-path="url(#clip-path)">
      <path id="Path_1117" data-name="Path 1117" d="M.974,350.019a.974.974,0,0,1,.974.974v.974a.974.974,0,0,1-1.947,0v-.974a.974.974,0,0,1,.974-.974Z" transform="translate(15.578 -335.414)" fill="#f48c57"/>
      <path id="Path_1118" data-name="Path 1118" d="M94.31,280.019a.974.974,0,0,1,.974.974v3.895a.974.974,0,0,1-1.947,0v-3.895a.974.974,0,0,1,.974-.974Z" transform="translate(-81.653 -268.335)" fill="#f48c57"/>
      <path id="Path_1119" data-name="Path 1119" d="M187.644,186.689a.973.973,0,0,1,.974.974v7.789a.974.974,0,1,1-1.947,0v-7.789a.973.973,0,0,1,.974-.974" transform="translate(-178.881 -178.899)" fill="#f48c57"/>
      <path id="Path_1120" data-name="Path 1120" d="M280.974,93.349a.974.974,0,0,1,.974.974v11.683a.974.974,0,0,1-1.947,0V94.323a.974.974,0,0,1,.974-.974Z" transform="translate(-276.105 -89.454)" fill="#f48c57"/>
      <path id="Path_1122" data-name="Path 1122" d="M.289.283a.974.974,0,0,1,1.373,0L5.848,4.47V2.922a.974.974,0,0,1,1.947,0V6.816a.974.974,0,0,1-.974.974H2.927a.974.974,0,0,1,0-1.947H4.475L.3,1.666A.974.974,0,0,1,.289.283Z" transform="translate(8.757 1.519)" fill="#f48c57"/>
    </g>
  </g>
</svg>
