<svg id="Group_3255" data-name="Group 3255" xmlns="http://www.w3.org/2000/svg" xmlns:xlink="http://www.w3.org/1999/xlink" width="28.165" height="29.728" viewBox="0 0 28.165 29.728">
  <defs>
    <clipPath id="clip-path">
      <rect id="Rectangle_1968" data-name="Rectangle 1968" width="28.165" height="29.728" fill="none"/>
    </clipPath>
  </defs>
  <g id="Group_3255-2" data-name="Group 3255" clip-path="url(#clip-path)">
    <path id="Path_1113" data-name="Path 1113" d="M2.013,12.454H26.151a2.018,2.018,0,0,0,1.652-.862,1.99,1.99,0,0,0,.242-1.821A14.917,14.917,0,0,0,17.737.463a.774.774,0,0,0-.175-.045,14.706,14.706,0,0,0-6.958,0,.808.808,0,0,0-.176.045A14.919,14.919,0,0,0,.119,9.772a1.989,1.989,0,0,0,.242,1.821,2.019,2.019,0,0,0,1.652.861Zm24.524-2.132a.375.375,0,0,1-.049.349.41.41,0,0,1-.336.176H22.938a15.227,15.227,0,0,0-2.328-7.5,13.266,13.266,0,0,1,5.927,6.977ZM14.885,1.638a13.123,13.123,0,0,1,2.225.323c2.37,1.643,3.978,5.054,4.218,8.886H14.886Zm-3.832.322a13.147,13.147,0,0,1,2.225-.322v9.208H6.835c.24-3.832,1.849-7.243,4.219-8.886ZM1.628,10.321A13.264,13.264,0,0,1,7.554,3.344a15.233,15.233,0,0,0-2.328,7.5H2.012a.409.409,0,0,1-.336-.176.378.378,0,0,1-.048-.349Z" transform="translate(0)" fill="#f48c57"/>
    <path id="Path_1114" data-name="Path 1114" d="M51.534,248.68a2.011,2.011,0,0,0,1.645-.855l10.012-14.277a.8.8,0,1,0-1.316-.923L51.863,246.9a.4.4,0,0,1-.657,0L41.193,232.626a.8.8,0,0,0-1.119-.2h0a.8.8,0,0,0-.2,1.119L49.89,247.825a2.01,2.01,0,0,0,1.644.855" transform="translate(-37.452 -218.953)" fill="#f48c57"/>
    <path id="Path_1115" data-name="Path 1115" d="M260.632,239.459a.8.8,0,0,0,.744-.5l2.812-6.855a.8.8,0,0,0-1.487-.61l-2.812,6.855a.8.8,0,0,0,.439,1.048A.794.794,0,0,0,260.632,239.459Z" transform="translate(-244.917 -217.741)" fill="#f48c57"/>
    <path id="Path_1116" data-name="Path 1116" d="M157.57,239.456a.8.8,0,0,0,.743-1.108l-2.812-6.855a.8.8,0,0,0-1.487.61l2.812,6.855A.8.8,0,0,0,157.57,239.456Z" transform="translate(-145.119 -217.737)" fill="#f48c57"/>
  </g>
</svg>
