<svg xmlns="http://www.w3.org/2000/svg" width="22.004" height="20" viewBox="0 0 22.004 20">
  <path id="Path_7" data-name="Path 7" d="M157.6,90H142.4a3.4,3.4,0,0,1-2.939-5.1l7.6-13.2a3.391,3.391,0,0,1,5.88,0l7.6,13.2A3.4,3.4,0,0,1,157.6,90ZM150,72a1.375,1.375,0,0,0-1.206.7h0l-7.6,13.2A1.4,1.4,0,0,0,142.4,88H157.6a1.4,1.4,0,0,0,1.207-2.1l-7.6-13.2A1.378,1.378,0,0,0,150,72Zm1,10V77a1,1,0,0,0-1-1h0a1,1,0,0,0-1,1v5a1,1,0,0,0,1,1h0A1,1,0,0,0,151,82Zm0,3h0a1,1,0,0,0-1-1h0a1,1,0,0,0-1,1h0a1,1,0,0,0,1,1h0A1,1,0,0,0,151,85Z" transform="translate(-138.998 -70)" fill="white"/>
</svg>
