<svg xmlns="http://www.w3.org/2000/svg" width="27.894" height="30" viewBox="0 0 27.894 30"><defs><style>.a{fill:#f48c57;}</style></defs><path class="a" d="M738,384c-.16,0-.316.015-.474.024l.368-.531v-.843a2.481,2.481,0,0,0-2.685-1.512c-1.494.09-3,.021-4.635.021.369-1.984.721-3.887,1.077-5.79.141-.756.236-1.526.447-2.262A2.41,2.41,0,0,0,730.955,370H729.9a9.319,9.319,0,0,0-1.134,1.073c-3.355,4.409-6.684,8.838-10.035,13.251a2.033,2.033,0,0,0-.415,2.325,2.078,2.078,0,0,0,2.112,1.07c1.6-.029,3.2-.008,4.9-.008-.064.5-.1.846-.154,1.187-.482,2.906-.962,5.813-1.457,8.717a1.84,1.84,0,0,0,1.032,2.184,1.746,1.746,0,0,0,2.356-.769q1.628-2.336,3.246-4.676A8,8,0,1,0,738,384Zm0,14a6,6,0,1,1,6-6A6.006,6.006,0,0,1,738,398Zm-12.121-.471-.249-.075c.65-3.829,1.3-7.657,1.972-11.607h-7.649l10.159-13.63.171.084-2.011,10.691H735.9l-1.187,1.722a8,8,0,0,0-4.689,6.8Zm14.576-7.915-.31.43a.554.554,0,0,1-.206.19.511.511,0,0,1-.2.055.518.518,0,0,1-.19-.024c-.06-.021-.113-.04-.16-.061-.134-.053-.293-.108-.48-.165a2.016,2.016,0,0,0-.591-.085,1.013,1.013,0,0,0-.6.17.51.51,0,0,0-.24.431.475.475,0,0,0,.19.384,2.351,2.351,0,0,0,.48.3c.193.094.4.194.625.3a2.959,2.959,0,0,1,.625.4,2.012,2.012,0,0,1,.48.61,1.982,1.982,0,0,1,.189.915,2.085,2.085,0,0,1-.174.85,2.148,2.148,0,0,1-.491.7,2.479,2.479,0,0,1-.754.484,3.157,3.157,0,0,1-.98.226l-.07.379a.736.736,0,0,1-.17.375.489.489,0,0,1-.37.125h-.1a.418.418,0,0,1-.38-.155.621.621,0,0,1-.051-.445l.071-.35a3.465,3.465,0,0,1-.87-.275,3.294,3.294,0,0,1-.56-.315.469.469,0,0,1-.23-.365.655.655,0,0,1,.169-.4l.351-.42a.536.536,0,0,1,.355-.215.706.706,0,0,1,.415.125,3.685,3.685,0,0,0,.485.215,2.052,2.052,0,0,0,.745.125,1.376,1.376,0,0,0,.31-.035.875.875,0,0,0,.27-.11.58.58,0,0,0,.19-.185.459.459,0,0,0,.07-.25.489.489,0,0,0-.191-.4,2.575,2.575,0,0,0-.474-.3c-.191-.1-.4-.2-.62-.311a2.778,2.778,0,0,1-.62-.415,2.065,2.065,0,0,1-.475-.615,2.241,2.241,0,0,1-.005-1.8,2.13,2.13,0,0,1,.5-.675,2.5,2.5,0,0,1,.725-.455,3.14,3.14,0,0,1,.87-.22l.08-.41a.748.748,0,0,1,.17-.359.494.494,0,0,1,.38-.131h.1q.551,0,.43.6l-.07.34a3.3,3.3,0,0,1,.74.2,2.955,2.955,0,0,1,.51.245Q740.8,389.134,740.455,389.614Z" transform="translate(-718.106 -370)"/></svg>