<svg xmlns="http://www.w3.org/2000/svg" width="22.05" height="18.315" viewBox="0 0 22.05 18.315">
  <path id="telegram" d="M17.991,3.037a7.712,7.712,0,0,0-1.009.458Q11.645,6.824,6.336,10.181a1.32,1.32,0,0,1-1.247.165c-1.348-.44-2.751-.807-4.071-1.265A4.759,4.759,0,0,1,0,8.347c.321-.284.587-.7.963-.834,3.943-1.55,7.913-3.053,11.921-4.585C15.35,2.01,17.8,1.029,20.274.176a1.834,1.834,0,0,1,1.449,0,1.77,1.77,0,0,1,.284,1.412C21.09,6.1,20.091,10.6,19.119,15.114c-.156.715-.275,1.44-.458,2.155-.275,1.11-.981,1.385-1.935.706-1.541-1.064-2.971-2.173-4.511-3.3l-.449-.312L8.931,16.994l-.257-.147c-.055-1.559-.11-3.118-.128-4.677,0-.183.22-.394.385-.55,2.861-2.577,5.74-5.144,8.6-7.712.22-.2.4-.431.605-.651Z" transform="translate(0 -0.027)" fill="#fff"/>
</svg>
