<svg id="Group_238" data-name="Group 238" xmlns="http://www.w3.org/2000/svg" width="24" height="24" viewBox="0 0 24 24">
  <g id="Layer_2" data-name="Layer 2" transform="translate(0 0)">
    <g id="invisible_box" data-name="invisible box">
      <rect id="Rectangle_79" data-name="Rectangle 79" width="24" height="24" fill="none"/>
      <rect id="Rectangle_80" data-name="Rectangle 80" width="24" height="24" fill="none"/>
    </g>
    <g id="icons_Q2" data-name="icons Q2" transform="translate(0.976 3.837)">
      <path id="Path_107" data-name="Path 107" d="M23.769,7.98a9.526,9.526,0,0,1-2.573.695,4.421,4.421,0,0,0,1.979-2.316,11.96,11.96,0,0,1-2.82,1.019,4.72,4.72,0,0,0-4.9-1.028A4.237,4.237,0,0,0,12.587,10.2a3.313,3.313,0,0,0,.148.973,13.077,13.077,0,0,1-9.2-4.355,3.756,3.756,0,0,0-.643,2.085,4.066,4.066,0,0,0,2.028,3.475,4.218,4.218,0,0,1-2.028-.51h0a4.2,4.2,0,0,0,3.562,4.123,4.518,4.518,0,0,1-1.187.185l-.841-.093A4.528,4.528,0,0,0,8.63,19.006a9.407,9.407,0,0,1-5.541,1.761H2a13.034,13.034,0,0,0,6.827,1.9c8.213,0,12.715-6.393,12.715-11.907v-.6A8.752,8.752,0,0,0,23.769,7.98Z" transform="translate(-2 -6.063)" fill="#4c646f"/>
    </g>
  </g>
</svg>
